# xmcd
#
# Track frame offsets: 
#        182
#        29265
#        55837
#        76092
#        108027
#        130750
#        149030
#        173542
#        205692
#        239010
#
# Disc length: 3478 seconds
#
# Revision: 1
# Processed by: cddbd v1.5.2PL0 Copyright (c) Steve Scherf et al.
# Submitted via: ExactAudioCopy v0.90b4
#
DISCID=7e0d940a
DTITLE=Rémy Chaudagne - 3 Couleurs
DYEAR=1995
DGENRE=Progressive Jazz
TTITLE0=Janvier
TTITLE1=Cora
TTITLE2=Le Reggae Des Enfants
TTITLE3=Gigolo
TTITLE4=Bahasa Indonesia
TTITLE5=Hommage À Ravel - Mood
TTITLE6=Beetlejuice
TTITLE7=Lullaby Of Birdland
TTITLE8=Valse Evans
TTITLE9=Que Reste-T-Il De Nos Amours
EXTD=
EXTT0=
EXTT1=
EXTT2=
EXTT3=
EXTT4=
EXTT5=
EXTT6=
EXTT7=
EXTT8=
EXTT9=
PLAYORDER=
